<?xml version="1.0" standalone="no"?><!DOCTYPE svg PUBLIC "-//W3C//DTD SVG 1.1//EN" "http://www.w3.org/Graphics/SVG/1.1/DTD/svg11.dtd"><svg t="1597718464189" class="icon" viewBox="0 0 1024 1024" version="1.1" xmlns="http://www.w3.org/2000/svg" p-id="12778" xmlns:xlink="http://www.w3.org/1999/xlink" width="200" height="200"><defs><style type="text/css"></style></defs><path d="M313.3952 128.6656a308.48 308.48 0 0 1 88.6784-49.3568 298.31168 298.31168 0 0 1 108.4416-21.8112c28.0576 0 46.592 11.0592 56.0128 33.28s29.4912 36.0448 60.5184 41.1648c11.776 2.048 17.8176 7.5776 18.1248 16.384 0.3072 9.1136 0.512 15.9744 0.512 20.48a96.37888 96.37888 0 0 0 21.4016-13.2096 71.89504 71.89504 0 0 1 51.712-10.9568 171.48928 171.48928 0 0 0-21.0944 13.2096c-6.5536 5.0176-9.4208 9.1136-8.3968 12.3904a55.12192 55.12192 0 0 1 40.6528-19.5584c15.36-0.3072 23.04 0.7168 23.04 3.3792a19.59936 19.59936 0 0 1-10.8544 3.6864 21.11488 21.11488 0 0 0-14.7456 9.0112 45.056 45.056 0 0 1 30.5152-3.6864 52.92032 52.92032 0 0 1 27.8528 11.0592c-17.8176-2.56-27.5456-2.048-28.8768 2.048a152.4224 152.4224 0 0 0 15.872 3.584 52.77696 52.77696 0 0 1 31.6416 25.2928c-9.4208-2.6624-19.0464-5.5296-29.0816-8.8064a29.41952 29.41952 0 0 0-20.2752-2.048c-1.024 2.048 0.6144 4.5056 5.3248 7.68 4.5056 3.072 8.704 5.8368 12.6976 8.6016a34.47808 34.47808 0 0 1-25.7024-1.2288 178.69824 178.69824 0 0 1-37.9904-16.896 11.6736 11.6736 0 0 0 7.3728 8.4992 144.45568 144.45568 0 0 1 14.7456 9.6256 48.85504 48.85504 0 0 1-30.1056-4.1984 45.23008 45.23008 0 0 1-21.4016-15.9744 14.60224 14.60224 0 0 0 1.2288 10.24 26.44992 26.44992 0 0 0 15.4624 15.2576q-13.824 1.536-44.1344-16.2816a76.8 76.8 0 0 1 3.1744 39.5264c-2.3552 12.6976-7.7824 16.384-15.9744 11.5712a850.944 850.944 0 0 0-156.3648-61.44 1625.98912 1625.98912 0 0 1-169.984-60.5184z m-197.0176-2.048c-2.4576 9.8304 4.5056 19.7632 21.4016 29.9008a459.34592 459.34592 0 0 0 59.904 29.7984q34.816 14.8992 70.4512 27.9552a351.82592 351.82592 0 0 1 52.6336 23.6544c-4.8128 4.8128-6.144 7.2704-3.9936 7.2704a10.76224 10.76224 0 0 1-10.6496 0.512 14.21312 14.21312 0 0 0-5.4272-2.4576 40.59136 40.59136 0 0 1 12.6976 9.3184 31.34464 31.34464 0 0 1-17.7152 32.3584c-12.6976 6.8608-19.0464 14.336-19.0464 22.528a12.00128 12.00128 0 0 0 7.3728 11.776 39.17824 39.17824 0 0 1 14.7456 15.6672c3.4816 6.5536 2.4576 10.9568-3.584 12.6976-5.8368 2.048-4.7104 7.3728 3.584 16.2816-2.048 4.8128-3.6864 9.216-4.9152 12.6976a16.384 16.384 0 0 0 6.8608 14.7456 17.24416 17.24416 0 0 1 5.5296 5.8368 277.1456 277.1456 0 0 1-7.4752 28.9792q-5.8368 22.1184 26.2144 26.9312a124.33408 124.33408 0 0 0 48.64 0.512 206.06976 206.06976 0 0 0 3.2768 37.2736 152.44288 152.44288 0 0 1-3.2768 51.9168c-1.7408 7.4752-17.5104 2.7648-47.0016-13.9264-29.3888-16.896-58.1632-8.4992-86.2208 24.7808q-28.416 33.792-33.9968 94.0032a844.38016 844.38016 0 0 0-2.6624 122.88c1.8432 41.5744 4.3008 79.9744 7.4752 114.8928s2.56 58.368-1.6384 70.144a1779.712 1779.712 0 0 0 153.9072-144.384q63.744-68.352 117.5552-118.784a513.28 513.28 0 0 1 105.8816-78.5408 216.73984 216.73984 0 0 1 118.5792-23.552c-9.1136-4.5056-34.9184-16.2816-77.4144-35.0208s-64.7168-58.88-66.7648-120.32a73.5232 73.5232 0 0 0 55.7056 21.8112 104.61184 104.61184 0 0 0 53.8624-15.872 56.10496 56.10496 0 0 0 26.4192-37.888c2.8672-15.1552-5.8368-30.1056-26.112-44.4416 84.48 28.3648 144.5888 42.5984 179.9168 42.8032s54.272-5.7344 57.344-17.408q2.7648-13.312-38.8096-34.5088a1000.25344 1000.25344 0 0 0-94.8224-41.984q-53.1456-20.5824-101.2736-36.7616-47.7696-16.128-57.344-20.0704-45.9264-14.1312-126.7712-45.568c-54.0672-20.8896-107.7248-40.3456-161.5872-57.856a1004.9536 1004.9536 0 0 0-142.336-36.9664c-41.1648-7.0656-64.3072-1.536-69.12 16.384z m416.0512 286.8224l28.8768 48.9472-56.32 2.048 27.4432-50.9952z m0 12.6976l16.1792 30.9248h-30.72l14.5408-30.9248z m189.6448 171.52a88.19712 88.19712 0 0 1 60.5184 42.0864 332.72832 332.72832 0 0 1 31.0272 81.5104q12.288 48.9984 28.7744 111.8208a612.90496 612.90496 0 0 0 54.6816 133.3248h-647.3728a333.60896 333.60896 0 0 0 129.6384-86.3232c39.6288-41.1648 78.1312-83.0464 115.0976-125.3376a1186.74432 1186.74432 0 0 1 110.6944-111.4112c36.864-32.1536 75.776-47.2064 116.9408-45.6704z m-188.1088-208.384a9.216 9.216 0 0 1 11.264 9.4208 10.63936 10.63936 0 0 1-11.264 12.6976 10.3936 10.3936 0 0 1-10.752-12.6976 8.93952 8.93952 0 0 1 10.752-9.4208z" p-id="12779"></path></svg>